<?xml version="1.0" encoding="utf-8"?>
<!-- Generator: Adobe Illustrator 16.0.3, SVG Export Plug-In . SVG Version: 6.00 Build 0)  -->
<!DOCTYPE svg PUBLIC "-//W3C//DTD SVG 1.1//EN" "http://www.w3.org/Graphics/SVG/1.1/DTD/svg11.dtd">
<svg version="1.1" id="Capa_1" xmlns="http://www.w3.org/2000/svg" xmlns:xlink="http://www.w3.org/1999/xlink" x="0px" y="0px"
	 width="189.455px" height="202.43px" viewBox="0 0 189.455 202.43" enable-background="new 0 0 189.455 202.43"
	 xml:space="preserve">
<rect fill="#B30000" width="189.455" height="202.43"/>
<g>
	<path fill="#FFFFFF" d="M54.447,76.823h-1.478v6.22h1.478c2.197,0,3.083-1.309,3.083-3.33
		C57.53,77.633,56.917,76.823,54.447,76.823 M60.271,87.385c0,1.579-0.246,1.928-0.246,2.688c0,0.696,0.326,1.141,0.865,1.141
		c0.369,0,0.765-0.297,0.765-0.867c0-0.274,0.195-0.468,0.446-0.468c0.242,0,0.493,0.194,0.493,0.446
		c0,0.961-0.988,1.653-1.855,1.653c-2.168,0-3.083-1.061-3.083-4.593c0-2.494-0.614-3.452-3.356-3.452h-1.331v7.058
		c1.552,0,2.074-0.027,2.516-0.027c0.193,0,0.369,0.176,0.369,0.444c0,0.273-0.176,0.424-0.369,0.424
		c-0.472,0-1.038-0.129-3.332-0.129h-0.916c-2.34,0-2.86,0.129-3.329,0.129c-0.197,0-0.372-0.151-0.372-0.424
		c0-0.268,0.175-0.444,0.372-0.444c0.396,0,0.762,0.027,2.489,0.027V76.674c-1.727,0-2.093,0.028-2.489,0.028
		c-0.197,0-0.372-0.173-0.372-0.443c0-0.254,0.175-0.422,0.372-0.422c0.469,0,0.989,0.127,3.329,0.127h0.623
		c0.959,0,1.601-0.026,2.587-0.026c3.578,0,5.699,1.601,5.699,3.775c0,1.897-1.628,3.304-3.305,3.577
		C59.038,83.955,60.271,85.315,60.271,87.385"/>
	<path fill="#FFFFFF" d="M70.367,76.382c-2.64,0-3.85,1.995-3.85,7.447c0,5.483,1.21,7.456,3.85,7.456
		c2.618,0,3.853-1.973,3.853-7.456C74.22,78.377,72.985,76.382,70.367,76.382 M70.367,92.158c-3.701,0-6.739-3.362-6.739-8.329
		c0-4.938,3.038-8.312,6.739-8.312c3.677,0,6.714,3.373,6.714,8.312C77.081,88.796,74.044,92.158,70.367,92.158"/>
	<path fill="#FFFFFF" d="M90.609,83.829c0-5.28-1.338-7.006-4.147-7.006c-1.632,0-2.791,0.05-2.791,0.05v13.919
		c0,0,1.01,0.047,2.791,0.047C89.271,90.839,90.609,89.108,90.609,83.829 M78.61,91.832c-0.197,0-0.37-0.151-0.37-0.424
		c0-0.268,0.173-0.444,0.37-0.444c0.397,0,0.765,0.027,2.493,0.027V76.674c-1.728,0-2.096,0.028-2.493,0.028
		c-0.197,0-0.37-0.173-0.37-0.443c0-0.254,0.173-0.422,0.37-0.422c0.471,0,0.988,0.121,3.334,0.121h0.615
		c1.928,0,2.816-0.07,3.903-0.07c3.575,0,7.029,3.179,7.029,7.941c0,4.771-3.454,7.98-7.029,7.98c-1.06,0-1.876-0.106-3.903-0.106
		h-0.615C79.598,91.703,79.081,91.832,78.61,91.832"/>
	<path fill="#FFFFFF" d="M104.277,75.518c1.653,0,2.665,0.988,2.665,2.115c0,1.035-0.643,1.861-1.602,1.861
		c-0.912,0-1.627-0.717-1.627-1.634c0-0.54,0.269-1.017,0.541-1.235c-1.602-0.394-3.972,1.756-3.972,6.521v7.845
		c1.55,0,2.071-0.027,2.517-0.027c0.197,0,0.367,0.176,0.367,0.444c0,0.273-0.17,0.424-0.367,0.424c-0.47,0-1.041-0.129-3.338-0.129
		h-0.906c-2.348,0-2.862,0.129-3.333,0.129c-0.199,0-0.372-0.151-0.372-0.424c0-0.268,0.173-0.444,0.372-0.444
		c0.394,0,0.765,0.027,2.493,0.027V76.674c-1.187,0-2.245,0.028-2.493,0.028c-0.199,0-0.372-0.173-0.372-0.443
		c0-0.257,0.173-0.422,0.372-0.422c0.169,0,1.233,0.101,2.69,0.101c0.909,0,1.622-0.176,2-0.176c0.221,0,0.37,0.196,0.37,0.517
		v2.423C101.017,76.969,102.529,75.518,104.277,75.518"/>
	<path fill="#FFFFFF" d="M116.446,90.964c0.202,0,0.37,0.175,0.37,0.444c0,0.272-0.168,0.424-0.37,0.424
		c-0.467,0-1.037-0.129-3.331-0.129h-0.914c-2.343,0-2.864,0.129-3.331,0.129c-0.197,0-0.367-0.151-0.367-0.424
		c0-0.27,0.17-0.444,0.367-0.444c0.391,0,0.766,0.027,2.494,0.027V76.674c-1.729,0-2.104,0.028-2.494,0.028
		c-0.197,0-0.367-0.173-0.367-0.443c0-0.254,0.17-0.422,0.367-0.422c0.467,0,0.988,0.121,3.331,0.121h0.914
		c2.294,0,2.864-0.121,3.331-0.121c0.202,0,0.37,0.168,0.37,0.422c0,0.271-0.168,0.443-0.37,0.443c-0.443,0-0.964-0.028-2.516-0.028
		v14.317C115.482,90.991,116.003,90.964,116.446,90.964"/>
	<path fill="#FFFFFF" d="M131.08,86.619c0,3.553-2.196,5.554-5.872,5.554c-3.701,0-6.763-3.356-6.763-8.346
		c0-4.977,2.956-8.31,6.538-8.31c2.051,0,3.335,0.961,4.277,1.849c0.293-0.12,0.488-0.397,0.488-1.23
		c0-0.134,0.026-0.374,0.344-0.374c0.396,0,0.396,0.24,0.396,0.374v5.013c0,0.192-0.073,0.389-0.366,0.389
		c-0.324,0-0.373-0.222-0.373-0.389c0-2.702-2.168-4.671-4.541-4.671c-2.813,0-3.877,1.772-3.877,7.349
		c0,5.579,1.161,7.484,4.076,7.484c2.79,0,3.182-2.149,3.182-4.596v-0.338h-0.199c-1.724,0-1.674,0.025-2.094,0.025
		c-0.199,0-0.371-0.145-0.371-0.419c0-0.27,0.172-0.446,0.371-0.446c0.467,0,0.986,0.123,3.325,0.123h0.228
		c2.293,0,2.445-0.123,2.914-0.123c0.197,0,0.373,0.176,0.373,0.446c0,0.274-0.176,0.419-0.373,0.419
		c-0.396,0-0.521-0.025-1.683-0.025V86.619z"/>
	<path fill="#FFFFFF" d="M141.302,76.382c-2.643,0-3.852,1.995-3.852,7.447c0,5.483,1.209,7.456,3.852,7.456
		c2.617,0,3.848-1.973,3.848-7.456C145.149,78.377,143.919,76.382,141.302,76.382 M141.302,92.158c-3.705,0-6.743-3.362-6.743-8.329
		c0-4.938,3.038-8.312,6.743-8.312c3.678,0,6.714,3.373,6.714,8.312C148.016,88.796,144.979,92.158,141.302,92.158"/>
	<path fill="#FFFFFF" d="M152.188,90.768c0,0.618-0.493,1.084-1.159,1.084c-0.67,0-1.31-0.64-1.31-1.304
		c0-0.861,0.544-1.557,1.604-1.557c1.26,0,1.898,1.04,1.898,2.02c0,1.146-0.368,2.196-1.682,3.855
		c-0.271,0.324-0.834,0.096-0.416-0.52C152.161,92.886,152.433,91.46,152.188,90.768"/>
	<path fill="#FFFFFF" d="M59.14,103.282c0.196,0,0.37,0.169,0.37,0.439v0.74c0,1.017,0.123,2.741,0.123,2.99
		c0,0.191-0.123,0.373-0.373,0.373c-0.272,0-0.419-0.182-0.419-0.373c0-1.974-0.694-3.162-2.096-3.162H52.77v6.217h2.416
		c0.818,0,1.333-0.636,1.333-1.898c0-0.198,0.1-0.369,0.323-0.369c0.225,0,0.321,0.171,0.321,0.369c0,0.225-0.024,0.688-0.024,2.344
		c0,1.652,0.024,2.127,0.024,2.346c0,0.172-0.096,0.376-0.321,0.376c-0.223,0-0.323-0.204-0.323-0.376
		c0-1.257-0.515-1.898-1.333-1.898H52.77v6.911h4.592c1.406,0,2.098-1.186,2.098-3.157c0-0.196,0.148-0.371,0.414-0.371
		c0.25,0,0.373,0.175,0.373,0.371c0,0.246-0.123,1.972-0.123,2.98v0.77c0,0.246-0.169,0.416-0.372,0.416
		c-0.221,0-0.984-0.097-1.358-0.097l-7.379-0.047c-2.346,0-2.859,0.123-3.332,0.123c-0.17,0-0.367-0.149-0.367-0.421
		c0-0.274,0.197-0.45,0.367-0.45c0.421,0,0.79,0.032,2.523,0.032v-14.316c-1.733,0-2.102,0.021-2.523,0.021
		c-0.17,0-0.367-0.166-0.367-0.442c0-0.25,0.197-0.422,0.367-0.422c0.473,0,0.986,0.125,3.332,0.125l6.763-0.046
		C58.146,103.379,58.917,103.282,59.14,103.282"/>
	<path fill="#FFFFFF" d="M72.264,118.312c1.41,0,2.078-1.187,2.078-3.158c0-0.196,0.144-0.371,0.415-0.371
		c0.25,0,0.374,0.175,0.374,0.371c0,0.246-0.124,1.972-0.124,2.98v0.77c0,0.247-0.174,0.416-0.373,0.416
		c-0.221,0-0.988-0.096-1.351-0.096l-7.16-0.047c-2.345,0-2.863,0.122-3.333,0.122c-0.196,0-0.371-0.148-0.371-0.421
		c0-0.269,0.175-0.449,0.371-0.449c0.392,0,0.763,0.031,2.493,0.031v-14.316c-1.73,0-2.101,0.021-2.493,0.021
		c-0.196,0-0.371-0.167-0.371-0.442c0-0.25,0.175-0.42,0.371-0.42c0.47,0,0.988,0.123,3.333,0.123h0.915
		c2.295,0,2.861-0.123,3.329-0.123c0.196,0,0.369,0.17,0.369,0.42c0,0.275-0.173,0.442-0.369,0.442
		c-0.444,0-0.964-0.021-2.517-0.021v14.168H72.264z"/>
	<path fill="#FFFFFF" d="M84.435,118.428c0.2,0,0.371,0.175,0.371,0.45c0,0.272-0.171,0.421-0.371,0.421
		c-0.467,0-1.036-0.123-3.332-0.123h-0.911c-2.344,0-2.864,0.123-3.331,0.123c-0.2,0-0.374-0.148-0.374-0.421
		c0-0.275,0.174-0.45,0.374-0.45c0.393,0,0.76,0.032,2.492,0.032v-14.316c-1.732,0-2.099,0.021-2.492,0.021
		c-0.2,0-0.374-0.167-0.374-0.442c0-0.25,0.174-0.423,0.374-0.423c0.467,0,0.987,0.126,3.331,0.126h0.911
		c2.296,0,2.865-0.126,3.332-0.126c0.2,0,0.371,0.173,0.371,0.423c0,0.275-0.171,0.442-0.371,0.442c-0.447,0-0.96-0.021-2.519-0.021
		v14.316C83.475,118.46,83.988,118.428,84.435,118.428"/>
	<path fill="#FFFFFF" d="M94.625,111.669c-2.519,0-5.281,1.012-5.281,4.026c0,1.824,0.964,2.474,1.903,2.474
		c0.741,0,1.723,0,3.378-1.78V111.669z M90.802,106.288c0,0.842-0.666,1.506-1.478,1.506c-0.843,0-1.484-0.664-1.484-1.506
		c0-1.697,2.396-3.185,4.54-3.185c3.065,0,4.815,1.487,4.815,4.892v9.498c0,0.914,0.226,1.16,0.616,1.16
		c0.615,0,0.769-0.714,1.085-0.982c0.077-0.101,0.153-0.151,0.248-0.151c0.3,0,0.546,0.205,0.546,0.47
		c0,0.197-0.126,0.418-0.246,0.541c-0.864,0.885-1.881,0.964-2.445,0.964c-1.259,0-2.074-0.841-2.296-2.069
		c-1.751,1.549-3.211,2.119-4.614,2.119c-1.777,0-3.432-1.207-3.432-3.406c0-4.047,4.715-5.256,7.968-5.256v-4.268
		c0-1.728-0.758-2.596-2.245-2.596c-1.254,0-2.072,0.443-2.343,0.938C90.504,105.201,90.802,105.746,90.802,106.288"/>
	<path fill="#FFFFFF" d="M106.694,118.609c1.906,0,3.856-1.038,3.856-3.112c0-1.607-1.777-2.249-3.211-2.667l-1.552-0.471
		c-3.529-1.058-4.246-2.711-4.246-4.66c0-3.476,2.935-4.714,5.031-4.714c2.416,0,4.69,1.305,4.69,3.082
		c0,1.136-0.644,1.705-1.379,1.705c-0.746,0-1.359-0.62-1.359-1.361c0-0.591,0.394-1.081,0.912-1.279
		c-0.491-0.789-1.581-1.164-2.762-1.164c-2.175,0-3.628,1.035-3.628,2.965c0,1.334,1.156,1.977,2.564,2.417l1.776,0.544
		c3.012,0.86,4.735,2.197,4.735,4.892c0,3.08-2.487,4.885-5.551,4.885c-3.429,0-5.527-2.423-5.527-4.125
		c0-1.03,0.544-1.602,1.359-1.602c0.739,0,1.353,0.614,1.353,1.351c0,0.648-0.438,1.159-1.011,1.312
		C103.464,117.963,105.169,118.609,106.694,118.609"/>
	<path fill="#FFFFFF" d="M34.924,133.36c0-1.205-0.593-2.24-1.953-2.24c-1.451,0-1.922,0.932-1.922,2.295
		c0,1.457,0.738,2.462,1.555,3.476C34.8,136.227,34.924,134.895,34.924,133.36 M29.615,142.083c0,1.893,0.767,4.064,3.733,4.064
		c0.983,0,1.821-0.27,2.537-0.74l-5.107-6.642C29.889,139.631,29.615,140.821,29.615,142.083 M38.23,140.128v-0.497
		c-1.308,0-1.581,0.026-1.853,0.026c-0.219,0-0.417-0.172-0.417-0.451c0-0.24,0.198-0.413,0.417-0.413
		c0.25,0,0.445,0.099,2.324,0.122c1.851-0.023,2.045-0.122,2.293-0.122c0.222,0,0.418,0.173,0.418,0.413
		c0,0.279-0.196,0.451-0.418,0.451c-0.271,0-0.517-0.026-1.855-0.026v0.497c0,1.548-0.317,2.91-0.909,4.023l1.383,1.769
		c1.01,0,1.281-0.017,1.528-0.017c0.2,0,0.396,0.17,0.396,0.444c0,0.271-0.196,0.413-0.396,0.413c-0.295,0-0.64-0.123-1.926-0.123
		c-1.303,0-1.529,0.123-1.8,0.123c-0.345,0-0.446-0.018-0.986-0.629c-0.914,0.629-2.053,0.979-3.308,0.979
		c-4.37,0-6.098-2.521-6.098-4.815c0-2.146,1.433-3.581,3.065-4.437c-1.088-1.436-1.606-2.492-1.606-3.683
		c0-1.729,1.606-3.724,4.488-3.724c2.273,0,4.1,1.232,4.1,3.107c0,1.707-1.526,3.203-3.973,3.947l4.515,5.826
		C38.008,142.421,38.23,141.309,38.23,140.128"/>
	<path fill="#FFFFFF" d="M62.688,131.438c0.125-0.298,0.444-0.541,0.767-0.541h0.764c2.296,0,2.859-0.125,3.332-0.125
		c0.17,0,0.373,0.168,0.373,0.415c0,0.277-0.203,0.449-0.373,0.449c-0.473,0-0.964-0.029-2.518-0.029v14.313
		c1.554,0,2.045-0.017,2.518-0.017c0.17,0,0.373,0.17,0.373,0.444c0,0.271-0.203,0.414-0.373,0.414
		c-0.473,0-1.036-0.124-3.332-0.124h-0.84c-2.346,0-2.837,0.124-3.331,0.124c-0.175,0-0.369-0.144-0.369-0.414
		c0-0.274,0.194-0.444,0.369-0.444c0.42,0,0.788,0.017,2.518,0.017v-11.643l-4.94,12.412c-0.099,0.246-0.196,0.345-0.542,0.345
		c-0.372,0-0.467-0.099-0.566-0.345l-4.813-12.612v11.843c1.557,0,2.05-0.017,2.512-0.017c0.179,0,0.377,0.17,0.377,0.444
		c0,0.271-0.198,0.414-0.377,0.414c-0.462,0-0.658-0.124-2.808-0.124h-0.318c-2.125,0-2.344,0.124-2.813,0.124
		c-0.203,0-0.372-0.144-0.372-0.414c0-0.274,0.169-0.444,0.372-0.444c0.418,0,0.786,0.017,2.513,0.017v-14.313
		c-1.727,0-2.095,0.029-2.513,0.029c-0.203,0-0.372-0.172-0.372-0.449c0-0.247,0.169-0.415,0.372-0.415
		c0.469,0,0.612,0.125,2.789,0.125c0.47,0,0.933-0.054,1.256-0.054c0.617,0,0.891,0.224,1.109,0.817l4.495,11.771L62.688,131.438z"
		/>
	<path fill="#FFFFFF" d="M79.078,136.128c0.222-0.669,0.266-1.04,0.266-1.457c0-2.124-1.405-3.281-3.029-3.281
		c-1.85,0-3.359,1.013-3.823,4.738H79.078z M72.34,138.767c0,4.961,1.532,7.307,4.271,7.307c2.194,0,3.504-1.182,4.241-3.434
		c0.052-0.219,0.203-0.513,0.443-0.513c0.301,0,0.472,0.197,0.472,0.414c0,0.175-0.097,0.523-0.146,0.673
		c-1.184,3.012-3.334,3.877-5.456,3.877c-3.654,0-6.688-3.064-6.688-8.324c0-4.934,3.106-8.314,6.491-8.314
		c3.999,0,6.021,3.061,5.749,6.71h-9.328C72.36,137.656,72.34,138.199,72.34,138.767"/>
	<path fill="#FFFFFF" d="M95.933,138.767c0-5.281-1.333-7.007-4.146-7.007c-1.628,0-2.79,0.052-2.79,0.052v13.912
		c0,0,1.017,0.052,2.79,0.052C94.6,145.775,95.933,144.05,95.933,138.767 M83.939,146.761c-0.2,0-0.371-0.142-0.371-0.412
		c0-0.272,0.171-0.444,0.371-0.444c0.396,0,0.765,0.015,2.492,0.015v-14.311c-1.727,0-2.096,0.029-2.492,0.029
		c-0.2,0-0.371-0.173-0.371-0.441c0-0.255,0.171-0.428,0.371-0.428c0.47,0,0.987,0.13,3.335,0.13h0.613c1.928,0,2.813-0.08,3.9-0.08
		c3.579,0,7.035,3.188,7.035,7.948c0,4.766-3.456,7.976-7.035,7.976c-1.061,0-1.873-0.104-3.9-0.104h-0.613
		C84.926,146.638,84.409,146.761,83.939,146.761"/>
	<path fill="#FFFFFF" d="M110.595,130.452c1.654,0,2.67,0.986,2.67,2.121c0,1.038-0.646,1.851-1.604,1.851
		c-0.92,0-1.633-0.715-1.633-1.627c0-0.541,0.274-1.017,0.544-1.237c-1.604-0.391-3.977,1.748-3.977,6.52v7.841
		c1.563,0,2.074-0.016,2.519-0.016c0.2,0,0.372,0.172,0.372,0.444c0,0.271-0.172,0.412-0.372,0.412
		c-0.468,0-1.035-0.124-3.329-0.124h-0.917c-2.343,0-2.863,0.124-3.325,0.124c-0.201,0-0.376-0.142-0.376-0.412
		c0-0.272,0.175-0.444,0.376-0.444c0.389,0,0.76,0.016,2.487,0.016v-14.312c-1.185,0-2.244,0.028-2.487,0.028
		c-0.201,0-0.376-0.172-0.376-0.44c0-0.256,0.175-0.424,0.376-0.424c0.167,0,1.229,0.097,2.686,0.097c0.914,0,1.627-0.17,1.996-0.17
		c0.228,0,0.371,0.198,0.371,0.514v2.423C107.333,131.909,108.845,130.452,110.595,130.452"/>
	<path fill="#FFFFFF" d="M122.763,139.136c-2.52,0-5.282,1.013-5.282,4.025c0,1.828,0.968,2.477,1.902,2.477
		c0.741,0,1.727,0,3.38-1.784V139.136z M118.936,133.765c0,0.83-0.664,1.498-1.478,1.498c-0.844,0-1.481-0.668-1.481-1.498
		c0-1.713,2.39-3.191,4.54-3.191c3.059,0,4.809,1.479,4.809,4.886v9.505c0,0.913,0.229,1.168,0.623,1.168
		c0.616,0,0.766-0.725,1.084-0.996c0.075-0.104,0.151-0.146,0.248-0.146c0.293,0,0.547,0.199,0.547,0.471
		c0,0.192-0.129,0.417-0.254,0.545c-0.859,0.887-1.877,0.959-2.443,0.959c-1.256,0-2.072-0.832-2.288-2.064
		c-1.759,1.545-3.212,2.111-4.621,2.111c-1.776,0-3.431-1.207-3.431-3.409c0-4.043,4.719-5.25,7.973-5.25v-4.275
		c0-1.726-0.768-2.586-2.246-2.586c-1.262,0-2.068,0.438-2.344,0.933C118.641,132.675,118.936,133.216,118.936,133.765"/>
	<path fill="#FFFFFF" d="M146.232,146.761c-0.47,0-1.007-0.123-3.327-0.123h-0.919c-2.245,0-2.444,0.123-2.933,0.123
		c-0.172,0-0.373-0.142-0.373-0.412c0-0.272,0.201-0.444,0.373-0.444c0.422,0,0.617,0.015,2.099,0.015v-11.08
		c0-2.291-0.499-3.201-2.099-3.201c-2.319,0-4.817,3.381-4.817,7.526v6.755c1.485,0,1.66-0.015,2.104-0.015
		c0.192,0,0.364,0.172,0.364,0.444c0,0.271-0.172,0.412-0.364,0.412c-0.474,0-0.767-0.123-2.916-0.123h-0.914
		c-2.347,0-2.864,0.123-3.328,0.123c-0.2,0-0.371-0.142-0.371-0.412c0-0.272,0.171-0.444,0.371-0.444
		c0.392,0,0.762,0.015,2.49,0.015v-14.311c-1.185,0-2.248,0.029-2.49,0.029c-0.2,0-0.371-0.173-0.371-0.441
		c0-0.255,0.171-0.428,0.371-0.428c0.172,0,1.232,0.106,2.683,0.106c0.919,0,1.636-0.176,2.002-0.176
		c0.228,0,0.369,0.199,0.369,0.514v3.683c0.743-2.079,2.794-4.443,5.161-4.443c3.136,0,4.344,2.462,4.344,5.775v9.691
		c1.531,0,2.048-0.015,2.491-0.015c0.196,0,0.368,0.172,0.368,0.444C146.601,146.619,146.429,146.761,146.232,146.761"/>
	<path fill="#FFFFFF" d="M154.107,131.313c-2.638,0-3.851,1.994-3.851,7.453c0,5.481,1.213,7.459,3.851,7.459
		c2.618,0,3.854-1.978,3.854-7.459C157.962,133.308,156.726,131.313,154.107,131.313 M154.107,147.09
		c-3.702,0-6.739-3.362-6.739-8.323c0-4.934,3.037-8.314,6.739-8.314c3.681,0,6.712,3.381,6.712,8.314
		C160.819,143.728,157.788,147.09,154.107,147.09"/>
	<path fill="#FFFFFF" d="M51.792,161.216l-1.067,2.893h2.111L51.792,161.216z M49.849,166.493c0.827,0,1.001-0.02,1.194-0.02
		c0.081,0,0.175,0.084,0.175,0.212c0,0.131-0.094,0.188-0.175,0.188c-0.218,0-0.343-0.055-1.366-0.055h-0.052
		c-1.025,0-1.141,0.055-1.36,0.055c-0.089,0-0.158-0.058-0.158-0.188c0-0.128,0.069-0.212,0.158-0.212c0.208,0,0.37,0.02,1.14,0.02
		l2.602-7.095c0.035-0.099,0.071-0.13,0.195-0.13c0.128,0,0.175,0.048,0.198,0.13l2.582,7.095h0.032c0.564,0,0.694-0.02,0.889-0.02
		c0.093,0,0.167,0.084,0.167,0.212c0,0.131-0.074,0.188-0.167,0.188c-0.22,0-0.462-0.055-1.552-0.055h-0.055
		c-1.073,0-1.334,0.055-1.553,0.055c-0.076,0-0.158-0.058-0.158-0.188c0-0.128,0.082-0.212,0.158-0.212
		c0.208,0,0.472,0.02,0.887,0.02h0.077l-0.694-1.958h-2.437L49.849,166.493z"/>
	<path fill="#FFFFFF" d="M63.478,164.845c0-0.996-0.562-1.639-1.651-1.639h-0.975v3.214h1.076
		C63.075,166.42,63.478,166.021,63.478,164.845 M62.997,161.239c0-0.98-0.403-1.342-1.551-1.342h-0.594v2.894h0.5
		C62.378,162.791,62.997,162.468,62.997,161.239 M58.494,166.874c-0.089,0-0.17-0.058-0.17-0.189c0-0.127,0.081-0.211,0.17-0.211
		c0.182,0,0.361,0.02,1.164,0.02v-6.661c-0.803,0-0.982,0.011-1.164,0.011c-0.089,0-0.17-0.08-0.17-0.21
		c0-0.11,0.081-0.192,0.17-0.192c0.217,0,0.464,0.056,1.548,0.056h0.288c0.438,0,1.013-0.021,1.402-0.021
		c1.652,0,2.469,0.769,2.469,1.764c0,0.816-0.859,1.436-1.516,1.631c1.001,0.182,1.999,0.965,1.999,1.975
		c0,1.222-0.851,2.022-2.515,2.022c-0.643,0-1.317-0.047-1.839-0.047h-0.288C58.958,166.82,58.711,166.874,58.494,166.874"/>
	<path fill="#FFFFFF" d="M71.239,159.692c-1.228,0-1.788,0.93-1.788,3.47c0,2.544,0.56,3.461,1.788,3.461
		c1.215,0,1.789-0.917,1.789-3.461C73.028,160.622,72.455,159.692,71.239,159.692 M71.239,167.03c-1.718,0-3.135-1.565-3.135-3.868
		c0-2.291,1.417-3.874,3.135-3.874c1.712,0,3.123,1.583,3.123,3.874C74.362,165.465,72.951,167.03,71.239,167.03"/>
	<path fill="#FFFFFF" d="M83.651,164.342c0.54,0,0.594,0.01,0.781,0.01c0.091,0,0.171-0.063,0.171-0.192
		c0-0.131-0.08-0.208-0.171-0.208c-0.218,0-0.292,0.059-1.353,0.059h-0.106c-1.093,0-1.33-0.059-1.552-0.059
		c-0.092,0-0.169,0.077-0.169,0.208c0,0.129,0.077,0.192,0.169,0.192c0.2,0,0.175-0.01,0.979-0.01h0.092v0.158
		c0,1.134-0.187,2.137-1.483,2.137c-1.352,0-1.892-0.886-1.892-3.475c0-2.595,0.49-3.429,1.805-3.429c1.1,0,2.11,0.924,2.11,2.174
		c0,0.082,0.023,0.184,0.173,0.184c0.134,0,0.169-0.096,0.169-0.184v-2.329c0-0.056,0-0.173-0.182-0.173
		c-0.152,0-0.16,0.117-0.16,0.173c0,0.391-0.092,0.516-0.232,0.575c-0.435-0.42-1.032-0.865-1.983-0.865
		c-1.664,0-3.04,1.56-3.04,3.874c0,2.319,1.421,3.882,3.145,3.882c1.706,0,2.729-0.936,2.729-2.584V164.342z"/>
	<path fill="#FFFFFF" d="M89.68,161.216l-1.068,2.893h2.111L89.68,161.216z M87.737,166.493c0.828,0,0.999-0.02,1.194-0.02
		c0.083,0,0.169,0.084,0.169,0.212c0,0.131-0.086,0.188-0.169,0.188c-0.22,0-0.341-0.055-1.365-0.055H87.51
		c-1.025,0-1.142,0.055-1.357,0.055c-0.089,0-0.16-0.058-0.16-0.188c0-0.128,0.071-0.212,0.16-0.212c0.207,0,0.367,0.02,1.138,0.02
		l2.604-7.095c0.036-0.099,0.071-0.13,0.197-0.13c0.128,0,0.171,0.048,0.196,0.13l2.582,7.095h0.036c0.561,0,0.686-0.02,0.882-0.02
		c0.093,0,0.172,0.084,0.172,0.212c0,0.131-0.079,0.188-0.172,0.188c-0.219,0-0.459-0.055-1.553-0.055h-0.053
		c-1.067,0-1.33,0.055-1.552,0.055c-0.078,0-0.161-0.058-0.161-0.188c0-0.128,0.083-0.212,0.161-0.212
		c0.207,0,0.471,0.02,0.888,0.02h0.079l-0.703-1.958h-2.43L87.737,166.493z"/>
	<path fill="#FFFFFF" d="M101.963,163.162c0-2.459-0.619-3.265-1.929-3.265c-0.754,0-1.295,0.022-1.295,0.022v6.479
		c0,0,0.471,0.021,1.295,0.021C101.344,166.42,101.963,165.616,101.963,163.162 M96.386,166.874c-0.096,0-0.175-0.058-0.175-0.189
		c0-0.127,0.079-0.211,0.175-0.211c0.184,0,0.354,0.02,1.154,0.02v-6.661c-0.801,0-0.971,0.011-1.154,0.011
		c-0.096,0-0.175-0.08-0.175-0.21c0-0.11,0.079-0.192,0.175-0.192c0.216,0,0.456,0.056,1.546,0.056h0.289
		c0.894,0,1.306-0.032,1.813-0.032c1.66,0,3.271,1.481,3.271,3.698c0,2.21-1.61,3.705-3.271,3.705c-0.496,0-0.873-0.047-1.813-0.047
		h-0.289C96.842,166.82,96.602,166.874,96.386,166.874"/>
	<path fill="#FFFFFF" d="M109.946,159.692c-1.234,0-1.789,0.93-1.789,3.47c0,2.544,0.555,3.461,1.789,3.461
		c1.212,0,1.787-0.917,1.787-3.461C111.733,160.622,111.158,159.692,109.946,159.692 M109.946,167.03
		c-1.725,0-3.139-1.565-3.139-3.868c0-2.291,1.414-3.874,3.139-3.874c1.708,0,3.117,1.583,3.117,3.874
		C113.063,165.465,111.654,167.03,109.946,167.03"/>
	<path fill="#FFFFFF" d="M118.885,167.044c-0.741,0-1.366-0.358-1.661-0.635c-0.1,0.045-0.223,0.172-0.223,0.406
		c0,0.059-0.008,0.17-0.156,0.17c-0.188,0-0.188-0.111-0.188-0.166v-2.138c0-0.101,0.046-0.183,0.178-0.183
		c0.158,0,0.166,0.098,0.166,0.183c0,1.119,0.82,1.889,1.93,1.889c0.752,0,1.516-0.523,1.516-1.415c0-0.839-0.687-1.146-1.338-1.322
		l-0.453-0.138c-1.432-0.421-2.008-1.1-2.008-2.284c0-1.317,1.15-2.123,2.139-2.123c0.709,0,1.213,0.234,1.479,0.518
		c0.116-0.029,0.193-0.127,0.193-0.323c0-0.065,0.014-0.179,0.161-0.179c0.181,0,0.181,0.113,0.181,0.173v1.854
		c0,0.094-0.029,0.185-0.17,0.185c-0.148,0-0.172-0.104-0.172-0.185c0-0.664-0.377-1.6-1.628-1.6c-0.783,0-1.394,0.528-1.394,1.383
		c0,0.783,0.61,1.021,1.174,1.183l0.568,0.166c1.247,0.366,2.143,0.969,2.143,2.339
		C121.321,166.177,120.198,167.044,118.885,167.044"/>
</g>
</svg>
