<?xml version="1.0" encoding="UTF-8"?>
<svg width="64px" height="40px" viewBox="0 0 64 40" version="1.1" xmlns="http://www.w3.org/2000/svg" xmlns:xlink="http://www.w3.org/1999/xlink">
    <title>isotipo whiz copy</title>
    <g id="Symbols" stroke="none" stroke-width="1" fill="none" fill-rule="evenodd" opacity="0.24">
        <g id="Components/navigation/Footer" transform="translate(-64.000000, -56.000000)" fill="#FFFFFF" fill-rule="nonzero">
            <g id="isotipo-whiz-copy" transform="translate(64.000000, 56.000000)">
                <path d="M16.9702435,15.7466262 L12.8458066,8.22503614 L3.88935847,30.9973433 L16.9702435,15.7466262 Z M42.6016359,16.0334845 L31.7164724,3.30197319 L20.7092403,16.1358149 L31.714655,36.2052967 L42.6016359,16.0334845 Z M59.4000118,30.9239258 L50.2796948,8.31752712 L46.3294254,15.6362728 L59.4000118,30.9239258 Z M62.0668943,35.1859281 C60.9360174,35.8964888 59.5107218,35.7152913 58.5853625,34.7268035 L44.7555573,18.5523876 L33.92431,38.6200528 L33.9002295,38.6631951 C33.3986272,39.5127194 32.6035149,40 31.7129891,40 C30.8251894,39.9983349 30.0252307,39.4983386 29.511058,38.6164198 L18.5584993,18.6435162 L4.77064583,34.7184778 L4.73051159,34.7632852 C3.81711684,35.7351216 2.3890951,35.9128375 1.25897545,35.197584 C0.153693595,34.4980737 -0.285662758,33.1645991 0.190193037,31.9555559 L10.2501056,6.37703317 C10.6329711,5.40353161 11.5256172,4.7483746 12.5809206,4.66738823 C13.6359211,4.58700736 14.6301901,5.11001279 15.1746527,6.04294548 L19.1208331,13.2390763 L29.7009763,0.903414294 L29.7403533,0.859969271 C30.2620984,0.305326178 30.9643719,0 31.7173811,0 L31.7187442,0 C32.4723592,0 33.1747842,0.306385813 33.7122801,0.88010233 L44.1758068,13.1173697 L47.9450936,6.13346856 L47.9700828,6.08972079 C48.5042469,5.18373309 49.4948811,4.67389741 50.5521533,4.76139297 C51.6066994,4.84798026 52.4941962,5.5029859 52.8654001,6.46346909 L63.1490043,31.9531339 C63.6168332,33.1621771 63.1718732,34.4914132 62.0668943,35.1859281" id="path22" transform="translate(31.666667, 20.000000) rotate(180.000000) translate(-31.666667, -20.000000) "></path>
            </g>
        </g>
    </g>
</svg>