<svg xmlns="http://www.w3.org/2000/svg" viewBox="0 0 192.06 74.01"><defs><style>.cls-1{fill:#fff;}.cls-2{fill:#ff1234;}</style></defs><g id="Capa_2" data-name="Capa 2"><g id="Layer_1" data-name="Layer 1"><path class="cls-1" d="M71.21,67.27a8,8,0,0,1-.12-9.49,7.79,7.79,0,0,1,4-2.94,8.07,8.07,0,0,1,6.37.52,11.61,11.61,0,1,0-.12,14.22A8.14,8.14,0,0,1,71.21,67.27Zm-2.36,2.78H66.28V57.65c-.34,0-.63,0-.93,0a.52.52,0,0,1-.35-.16c-.48-.79-.93-1.6-1.4-2.41,0,0,0-.08,0-.14h5.26ZM77.64,56.9a5.53,5.53,0,1,0,5.52,5.52A5.53,5.53,0,0,0,77.64,56.9ZM96,59.51A3.71,3.71,0,0,0,93.2,56a8.35,8.35,0,0,0-2-.32c-1.7,0-3.4,0-5.11,0a3,3,0,0,0-.31,0V69.63h3.15V64.89c.9,0,1.76,0,2.61-.13C93.76,64.53,96.29,63,96,59.51ZM91.85,62a2.66,2.66,0,0,1-1.08.39,15.54,15.54,0,0,1-1.81,0V58.1a5.6,5.6,0,0,1,2.75.32A2.21,2.21,0,0,1,91.85,62Zm13.06-.6a4.22,4.22,0,0,0-3.72-2,4.88,4.88,0,0,0-4.87,3.28,6.77,6.77,0,0,0-.12,3.81,4.08,4.08,0,0,0,2.75,3,7.87,7.87,0,0,0,5.49-.27c.1,0,.24-.14.24-.21,0-.69,0-1.38,0-2.14a5.65,5.65,0,0,1-3.34.75,2.16,2.16,0,0,1-2.25-2.14h6.5c0-.52,0-1,0-1.43A5.57,5.57,0,0,0,104.91,61.41Zm-2.24,2.21H99.11a2.07,2.07,0,0,1,2.06-2.11A1.72,1.72,0,0,1,102.67,63.62Zm10.15-4a8.3,8.3,0,0,0-5.33.52.45.45,0,0,0-.21.31c0,.67,0,1.34,0,2h.11l.34-.18a6,6,0,0,1,3.12-.8,1.44,1.44,0,0,1,1.57,1.63c-.59.08-1.21.13-1.81.25a13.85,13.85,0,0,0-2.65.64,2.85,2.85,0,0,0-1.65,3.07,2.73,2.73,0,0,0,1.7,2.52,3.55,3.55,0,0,0,4.15-1c.07-.09.15-.17.3-.34v1.35h2.87c0-2.31.07-4.6,0-6.88A3.16,3.16,0,0,0,112.82,59.65ZM112,67a1.9,1.9,0,0,1-1.94.72,1.2,1.2,0,0,1-.95-1,1.14,1.14,0,0,1,.76-1.25,10.37,10.37,0,0,1,1.47-.31l1.06-.13A2.78,2.78,0,0,1,112,67Zm24.4-2.88c-.56-.26-1.15-.43-1.72-.67a4.43,4.43,0,0,1-.95-.47.63.63,0,0,1,.13-1.16,3.15,3.15,0,0,1,1.42-.2,21.4,21.4,0,0,1,2.18.5V59.82a9.6,9.6,0,0,0-3.1-.38,5.39,5.39,0,0,0-2.58.7,2.76,2.76,0,0,0-1.39,2.58A2.57,2.57,0,0,0,132,65.14c.54.26,1.12.44,1.67.67a7.3,7.3,0,0,1,1.23.58.65.65,0,0,1-.08,1.11,1.78,1.78,0,0,1-.48.19,4.79,4.79,0,0,1-3-.38c-.27-.11-.53-.24-.84-.39,0,.79,0,1.52,0,2.25a.44.44,0,0,0,.3.31,15.8,15.8,0,0,0,2.14.4,6.52,6.52,0,0,0,3.63-.63,2.88,2.88,0,0,0,1.6-2.85A2.57,2.57,0,0,0,136.44,64.07Zm-7.74,3.46a1,1,0,0,1-1.09-.92,2.85,2.85,0,0,1,0-.51V54.9h-3.06c0,.17,0,.31,0,.45V66.89a4.58,4.58,0,0,0,0,.64,2.43,2.43,0,0,0,2.24,2.33,14.69,14.69,0,0,0,2.72-.23c.08,0,.19-.18.19-.27,0-.63,0-1.25,0-1.92A9.5,9.5,0,0,1,128.7,67.53Zm-5.54-8a2.59,2.59,0,0,0-2.68,1.14c-.13.21-.24.44-.37.66H120V59.7H117v9.94H120v-.53c0-1.51,0-3,0-4.54a2.19,2.19,0,0,1,2.77-2.35c.21,0,.42.12.66.19,0-.88,0-1.71,0-2.54C123.49,59.62,123.37,59.56,123.16,59.52Z"/><path class="cls-1" d="M145.35,65.41a1.41,1.41,0,0,0-.23-.63,1,1,0,0,0-.85-.38,1.12,1.12,0,0,0-1.13.82,3.31,3.31,0,0,0-.16,1.15,3,3,0,0,0,.16,1.1,1.08,1.08,0,0,0,1.1.78,1,1,0,0,0,.81-.31,1.51,1.51,0,0,0,.29-.8H147a2.77,2.77,0,0,1-.54,1.41,2.62,2.62,0,0,1-2.27,1.06,2.65,2.65,0,0,1-2.22-.89,4.22,4.22,0,0,1,.08-4.8,2.71,2.71,0,0,1,2.16-.9,3.27,3.27,0,0,1,1.92.53,2.43,2.43,0,0,1,.88,1.86Z"/><path class="cls-1" d="M153.33,68.64a2.88,2.88,0,0,1-2.39,1,2.91,2.91,0,0,1-2.4-1,3.63,3.63,0,0,1-.78-2.34,3.67,3.67,0,0,1,.78-2.34,2.89,2.89,0,0,1,2.4-1,2.86,2.86,0,0,1,2.39,1,3.62,3.62,0,0,1,.79,2.34A3.58,3.58,0,0,1,153.33,68.64Zm-1.3-.9a2.33,2.33,0,0,0,.38-1.44,2.29,2.29,0,0,0-.38-1.44,1.28,1.28,0,0,0-1.1-.51,1.31,1.31,0,0,0-1.1.51,2.35,2.35,0,0,0-.38,1.44,2.4,2.4,0,0,0,.38,1.44,1.31,1.31,0,0,0,1.1.51A1.28,1.28,0,0,0,152,67.74Z"/><path class="cls-1" d="M163.06,63.2a1.73,1.73,0,0,1,.73.56,1.78,1.78,0,0,1,.35.8,5.23,5.23,0,0,1,.06.92V69.4h-1.67v-4a1.44,1.44,0,0,0-.11-.59.82.82,0,0,0-.8-.43,1,1,0,0,0-.94.56,1.91,1.91,0,0,0-.13.71V69.4H158.9V65.69a2.2,2.2,0,0,0-.11-.8.81.81,0,0,0-.81-.45,1,1,0,0,0-.94.45,1.82,1.82,0,0,0-.13.76V69.4h-1.65V63.18h1.58v.91a2.88,2.88,0,0,1,.58-.69,2.28,2.28,0,0,1,2.38,0,1.81,1.81,0,0,1,.54.75,2,2,0,0,1,.79-.81,2.46,2.46,0,0,1,1.12-.25A2.05,2.05,0,0,1,163.06,63.2Z"/><path class="cls-1" d="M170.94,63.84a3.33,3.33,0,0,1,.76,2.37,3.73,3.73,0,0,1-.75,2.51,2.41,2.41,0,0,1-1.91.86,2,2,0,0,1-1.25-.37,2.69,2.69,0,0,1-.53-.6v3.25h-1.61V63.17h1.56v.92a2.79,2.79,0,0,1,.57-.64,2.1,2.1,0,0,1,1.3-.41A2.45,2.45,0,0,1,170.94,63.84ZM169.69,65a1.16,1.16,0,0,0-1.08-.55,1.22,1.22,0,0,0-1.23.84,3.06,3.06,0,0,0-.17,1.13,1.8,1.8,0,0,0,.58,1.53,1.34,1.34,0,0,0,.82.26,1.2,1.2,0,0,0,1-.53,2.77,2.77,0,0,0,0-2.68Z"/><path class="cls-1" d="M175.32,65.61a2.2,2.2,0,0,0,.65-.14.49.49,0,0,0,.35-.46.55.55,0,0,0-.27-.53,1.65,1.65,0,0,0-.79-.15,1,1,0,0,0-.83.29,1.14,1.14,0,0,0-.23.57h-1.57a2.36,2.36,0,0,1,.45-1.34,2.69,2.69,0,0,1,2.23-.83,4,4,0,0,1,1.83.41,1.56,1.56,0,0,1,.8,1.53v2.86c0,.2,0,.44,0,.72A1,1,0,0,0,178,69a.76.76,0,0,0,.24.18v.24h-1.77a1.69,1.69,0,0,1-.1-.35c0-.11,0-.24,0-.38a3.22,3.22,0,0,1-.78.63,2.36,2.36,0,0,1-1.19.3,2,2,0,0,1-1.41-.49,1.69,1.69,0,0,1-.55-1.36,1.78,1.78,0,0,1,.89-1.67,4,4,0,0,1,1.44-.4Zm1,.76a1.53,1.53,0,0,1-.31.16,2.55,2.55,0,0,1-.44.11l-.37.07a2.63,2.63,0,0,0-.75.22.75.75,0,0,0-.39.7.71.71,0,0,0,.24.6.93.93,0,0,0,.57.19,1.73,1.73,0,0,0,1-.31,1.31,1.31,0,0,0,.47-1.13Z"/><path class="cls-1" d="M184.38,63.53a2.07,2.07,0,0,1,.61,1.68V69.4h-1.66V65.61a1.67,1.67,0,0,0-.14-.75.9.9,0,0,0-.9-.48,1.12,1.12,0,0,0-1.13.7,2.39,2.39,0,0,0-.16,1V69.4h-1.63V63.18H181v.91a2.68,2.68,0,0,1,.59-.69,2.06,2.06,0,0,1,1.27-.38A2.37,2.37,0,0,1,184.38,63.53Z"/><path class="cls-1" d="M186.76,70.6h.2a2.33,2.33,0,0,0,.46,0,.77.77,0,0,0,.36-.13.82.82,0,0,0,.27-.4,1.17,1.17,0,0,0,.11-.38l-2.29-6.51h1.81l1.36,4.6,1.28-4.6h1.74l-2.14,6.13a8.69,8.69,0,0,1-1,2.2,1.87,1.87,0,0,1-1.44.42h-.35l-.39,0Z"/><path class="cls-1" d="M51.28,65.61a2.2,2.2,0,0,0,.65-.14.49.49,0,0,0,.35-.46.55.55,0,0,0-.27-.53,1.65,1.65,0,0,0-.79-.15,1,1,0,0,0-.83.29,1.24,1.24,0,0,0-.23.57H48.59a2.29,2.29,0,0,1,.46-1.34A2.66,2.66,0,0,1,51.27,63a4,4,0,0,1,1.83.41A1.56,1.56,0,0,1,53.9,65v2.86c0,.2,0,.44,0,.72A.86.86,0,0,0,54,69a.58.58,0,0,0,.24.18v.24H52.47a1.69,1.69,0,0,1-.1-.35,3.71,3.71,0,0,1,0-.38,3.48,3.48,0,0,1-.79.63,2.36,2.36,0,0,1-1.19.3,2,2,0,0,1-1.41-.49,1.69,1.69,0,0,1-.55-1.36,1.78,1.78,0,0,1,.89-1.67,4.18,4.18,0,0,1,1.44-.4Zm1,.76a1.53,1.53,0,0,1-.31.16,2.33,2.33,0,0,1-.44.11l-.37.07a2.63,2.63,0,0,0-.75.22.74.74,0,0,0-.38.7.71.71,0,0,0,.23.6.93.93,0,0,0,.57.19,1.76,1.76,0,0,0,1-.31A1.31,1.31,0,0,0,52.27,67Z"/><path class="cls-2" d="M63.71,4.94a2.8,2.8,0,0,0-3.58.48L45.94,22,34.82,1.42l0,0a2.52,2.52,0,0,0-4.51,0L19.05,21.93,4.9,5.42l0,0a2.8,2.8,0,0,0-3.57-.45A2.72,2.72,0,0,0,.2,8.26L10.52,34.53a2.76,2.76,0,0,0,2.39,1.75,2.8,2.8,0,0,0,2.67-1.41l4-7.39L30.49,40.15l0,0a2.75,2.75,0,0,0,2,.89h0a2.76,2.76,0,0,0,2-.91L45.34,27.61l3.87,7.17,0,0a2.79,2.79,0,0,0,2.65,1.37,2.75,2.75,0,0,0,2.37-1.75L64.82,8.26A2.73,2.73,0,0,0,63.71,4.94ZM61,9.32,51.61,32.54,47.55,25ZM43.73,24.61,32.55,37.69,21.26,24.51,32.55,3.9Zm-26.31.3-4.23,7.72L4,9.25Z"/><path class="cls-1" d="M110.24,11a2.65,2.65,0,0,0-2.86-.17,1.92,1.92,0,0,0-.84,1L100,28.78,93.64,12a2.07,2.07,0,0,0-.88-1.11,2.45,2.45,0,0,0-1.33-.39,2.37,2.37,0,0,0-1.32.39A2.14,2.14,0,0,0,89.25,12L82.67,28.58,76.28,11.87a1.93,1.93,0,0,0-.87-1,2.86,2.86,0,0,0-3,.17,1.61,1.61,0,0,0-.7,1.37,2.55,2.55,0,0,0,.19.89L80,33.6a2.06,2.06,0,0,0,1,1.06,3.31,3.31,0,0,0,3,0,2.18,2.18,0,0,0,1-1.06l6.35-16.1,6.24,16.1a2,2,0,0,0,1,1.06,3.24,3.24,0,0,0,1.54.37,3.14,3.14,0,0,0,1.52-.37,2.18,2.18,0,0,0,1-1.06l8.08-20.33a3.46,3.46,0,0,0,.19-.89A1.65,1.65,0,0,0,110.24,11Z"/><path class="cls-1" d="M139.5,10.53a2.43,2.43,0,0,0-1.73.6,2.1,2.1,0,0,0-.64,1.59v8.07H123.56V12.72a2.07,2.07,0,0,0-.65-1.59,2.51,2.51,0,0,0-1.75-.6,2.43,2.43,0,0,0-1.73.6,2.07,2.07,0,0,0-.64,1.59V32.78a2.08,2.08,0,0,0,.66,1.6,2.41,2.41,0,0,0,1.71.62,2.48,2.48,0,0,0,1.75-.62,2.11,2.11,0,0,0,.65-1.6V24.34h13.57v8.44a2.14,2.14,0,0,0,.64,1.6,2.7,2.7,0,0,0,3.44,0,2.08,2.08,0,0,0,.66-1.6V12.72a2.07,2.07,0,0,0-.64-1.59A2.43,2.43,0,0,0,139.5,10.53Z"/><path class="cls-1" d="M156.19,12.72a2,2,0,0,0-.66-1.59,2.54,2.54,0,0,0-1.78-.6,2.5,2.5,0,0,0-1.75.6,2,2,0,0,0-.66,1.59V32.78a2.08,2.08,0,0,0,.66,1.6,2.46,2.46,0,0,0,1.75.62,2.5,2.5,0,0,0,1.78-.62,2.08,2.08,0,0,0,.66-1.6Z"/><path class="cls-1" d="M182.31,31.28H170l13.46-17.16a2.53,2.53,0,0,0,.64-1.57,1.73,1.73,0,0,0-.59-1.32A2.25,2.25,0,0,0,182,10.7H166.45c-1.5,0-2.26.6-2.26,1.78s.76,1.74,2.26,1.74h11.76L164.76,31.34a2.52,2.52,0,0,0-.6,1.58,1.76,1.76,0,0,0,.58,1.35,2.25,2.25,0,0,0,1.56.52h16c1.51,0,2.26-.59,2.26-1.77S183.82,31.28,182.31,31.28Z"/><path class="cls-1" d="M189.84,10.44a2.23,2.23,0,0,0-2.26,2.25,2.2,2.2,0,0,0,2.23,2.2,2.18,2.18,0,0,0,2.25-2.24A2.21,2.21,0,0,0,189.84,10.44Zm0,4.27a2.1,2.1,0,0,1-2-2.07,2,2,0,0,1,4,0A2.1,2.1,0,0,1,189.81,14.71Zm.53-1.88-.18-.11a.83.83,0,0,0,.49-.21.63.63,0,0,0,.16-.42.67.67,0,0,0-.1-.34.47.47,0,0,0-.26-.22,1.13,1.13,0,0,0-.47-.07h-1v2.31h.31v-1h.52a.42.42,0,0,1,.14.06.71.71,0,0,1,.16.15l.22.32.3.48H191l-.4-.63A2,2,0,0,0,190.34,12.83Zm-.42-.35h-.65v-.76H190a.55.55,0,0,1,.37.1.34.34,0,0,1,.12.27.36.36,0,0,1-.24.35A1,1,0,0,1,189.92,12.48Z"/></g></g></svg>